<svg xmlns="http://www.w3.org/2000/svg" viewBox="0 0 32 32" fill="none">
  <defs>
    <linearGradient id="icon-gradient" x1="0%" y1="0%" x2="100%" y2="100%">
      <stop offset="0%" stop-color="#14b8a6"/>
      <stop offset="50%" stop-color="#0d9488"/>
      <stop offset="100%" stop-color="#8b5cf6"/>
    </linearGradient>
  </defs>
  <rect width="32" height="32" rx="8" fill="url(#icon-gradient)"/>
  <rect x="1" y="1" width="30" height="30" rx="7" fill="none" stroke="white" stroke-opacity="0.15"/>
  <g fill="#ffffff">
    <path d="M6 12.5C6 10.567 7.567 9 9.5 9H11v2.5H9.5a1 1 0 00-1 1v2h2.5v2.5H8.5v2a1 1 0 001 1H11V22.5H9.5C7.567 22.5 6 20.933 6 19v-6.5z"/>
    <rect x="13" y="9" width="2.5" height="13.5" rx="0.5"/>
    <path d="M18 9h6v2.5h-3.5v2H23a2 2 0 012 2v4.5a2 2 0 01-2 2h-5V19.5h4.5v-3.5h-4.5V9z"/>
  </g>
</svg>
