<svg xmlns="http://www.w3.org/2000/svg" viewBox="0 0 32 32" fill="none">
  <defs>
    <linearGradient id="g" x1="0%" y1="0%" x2="100%" y2="100%">
      <stop offset="0%" stop-color="#14b8a6"/>
      <stop offset="100%" stop-color="#8b5cf6"/>
    </linearGradient>
  </defs>
  <rect width="32" height="32" rx="7" fill="url(#g)"/>
  <path d="M7 11c0-1.1.9-2 2-2h2v2H9v3h3v2H9v3h2v2H9a2 2 0 01-2-2V11zM14 9h2v12h-2V9zM19 9h6v2h-4v2h3a1.5 1.5 0 011.5 1.5v4a1.5 1.5 0 01-1.5 1.5h-5v-2h4.5v-3H19V9z" fill="#0a0a0f"/>
</svg>
