<svg xmlns="http://www.w3.org/2000/svg" viewBox="0 0 48 48" fill="none">
  <defs>
    <linearGradient id="brand-gradient" x1="0%" y1="0%" x2="100%" y2="100%">
      <stop offset="0%" stop-color="#14b8a6"/>
      <stop offset="100%" stop-color="#8b5cf6"/>
    </linearGradient>
  </defs>
  <!-- Outer rounded square -->
  <rect x="2" y="2" width="44" height="44" rx="10" fill="url(#brand-gradient)"/>
  <!-- 615 stylized mark -->
  <g fill="#0a0a0f">
    <!-- 6 -->
    <path d="M11 16.5C11 14.5 12.5 13 14.5 13H17V16H14.5C14 16 13.5 16.5 13.5 17V19H17V22H13.5V25C13.5 25.5 14 26 14.5 26H17V29H14.5C12.5 29 11 27.5 11 25.5V16.5Z"/>
    <!-- 1 -->
    <path d="M21 13H24V29H21V13Z"/>
    <!-- 5 -->
    <path d="M28 13H37V16H30.5V19H35.5C36.9 19 38 20.1 38 21.5V26.5C38 27.9 36.9 29 35.5 29H28V26H35V22H28V13Z"/>
  </g>
</svg>
